<?xml version="1.0" encoding="UTF-8" standalone="no"?>
<!DOCTYPE svg PUBLIC "-//W3C//DTD SVG 20010904//EN"
              "http://www.w3.org/TR/2001/REC-SVG-20010904/DTD/svg10.dtd">

<svg xmlns="http://www.w3.org/2000/svg"
     width="27.7778in" height="27.7778in"
     viewBox="0 0 2000 2000">
  <path id="Selection #2"
        fill="none" stroke="black" stroke-width="1"
        d="M 164.00,1757.00
           C 164.00,1757.00 147.00,1757.00 147.00,1757.00
             147.00,1757.00 147.00,1771.00 147.00,1771.00
             147.00,1771.00 164.00,1771.00 164.00,1771.00
             164.00,1771.00 164.00,1886.00 164.00,1886.00
             164.00,1886.00 181.00,1886.00 181.00,1886.00
             181.00,1886.00 181.00,1771.00 181.00,1771.00
             181.00,1771.00 208.00,1771.00 208.00,1771.00
             208.00,1771.00 208.00,1757.00 208.00,1757.00
             208.00,1757.00 181.00,1757.00 181.00,1757.00
             181.00,1757.00 181.72,1733.00 181.72,1733.00
             182.03,1730.46 181.92,1727.36 183.17,1725.10
             185.03,1721.77 189.35,1719.97 193.00,1719.63
             198.55,1719.12 204.63,1721.78 210.00,1723.00
             210.00,1720.01 210.57,1709.73 209.01,1707.72
             207.52,1705.81 202.36,1705.03 200.00,1704.61
             190.14,1702.87 177.61,1703.42 170.33,1711.18
             161.62,1720.46 164.00,1744.50 164.00,1757.00 Z
           M 307.00,1704.57
           C 288.69,1711.76 298.97,1735.71 316.00,1730.35
             325.32,1727.42 328.03,1715.23 321.61,1708.21
             317.56,1703.78 312.49,1703.58 307.00,1704.57 Z
           M 511.00,1707.00
           C 511.00,1707.00 511.00,1886.00 511.00,1886.00
             511.00,1886.00 528.00,1886.00 528.00,1886.00
             528.00,1886.00 528.00,1830.00 528.00,1830.00
             528.00,1830.00 574.00,1870.07 574.00,1870.07
             574.00,1870.07 593.00,1885.44 593.00,1885.44
             593.00,1885.44 600.00,1886.00 600.00,1886.00
             600.00,1886.00 616.00,1886.00 616.00,1886.00
             611.74,1880.07 603.68,1873.71 598.00,1868.72
             598.00,1868.72 569.00,1842.83 569.00,1842.83
             562.84,1837.29 548.53,1823.09 542.00,1820.00
             542.00,1820.00 561.00,1802.85 561.00,1802.85
             561.00,1802.85 590.00,1777.28 590.00,1777.28
             590.00,1777.28 612.00,1757.00 612.00,1757.00
             612.00,1757.00 594.00,1757.00 594.00,1757.00
             583.42,1757.07 578.62,1764.13 571.00,1770.85
             571.00,1770.85 528.00,1808.00 528.00,1808.00
             528.00,1808.00 528.00,1707.00 528.00,1707.00
             528.00,1707.00 511.00,1707.00 511.00,1707.00 Z
           M 789.00,1707.00
           C 789.00,1707.00 789.00,1886.00 789.00,1886.00
             789.00,1886.00 806.00,1886.00 806.00,1886.00
             806.00,1886.00 806.00,1707.00 806.00,1707.00
             806.00,1707.00 789.00,1707.00 789.00,1707.00 Z
           M 953.00,1707.00
           C 953.00,1707.00 953.00,1780.00 953.00,1780.00
             940.08,1764.25 926.06,1754.03 905.00,1754.00
             897.51,1753.99 892.48,1753.73 885.00,1755.50
             865.09,1760.21 847.09,1776.09 839.45,1795.00
             836.89,1801.35 835.08,1809.15 835.00,1816.00
             835.00,1816.00 835.00,1826.00 835.00,1826.00
             835.11,1849.53 850.28,1871.73 871.00,1882.24
             879.21,1886.41 886.69,1888.89 896.00,1889.00
             913.28,1889.20 925.53,1887.75 940.00,1877.08
             944.76,1873.56 948.83,1869.17 953.00,1865.00
             953.00,1865.00 953.00,1886.00 953.00,1886.00
             953.00,1886.00 970.00,1886.00 970.00,1886.00
             970.00,1886.00 970.00,1707.00 970.00,1707.00
             970.00,1707.00 953.00,1707.00 953.00,1707.00 Z
           M 1645.00,1707.00
           C 1645.00,1707.00 1645.00,1780.00 1645.00,1780.00
             1632.08,1764.25 1618.06,1754.03 1597.00,1754.00
             1589.51,1753.99 1584.48,1753.73 1577.00,1755.50
             1557.09,1760.21 1539.09,1776.09 1531.45,1795.00
             1528.89,1801.35 1527.08,1809.15 1527.00,1816.00
             1527.00,1816.00 1527.00,1826.00 1527.00,1826.00
             1527.11,1849.53 1542.28,1871.73 1563.00,1882.24
             1571.21,1886.41 1578.69,1888.89 1588.00,1889.00
             1605.28,1889.20 1617.53,1887.75 1632.00,1877.08
             1636.76,1873.56 1640.83,1869.17 1645.00,1865.00
             1645.00,1865.00 1645.00,1886.00 1645.00,1886.00
             1645.00,1886.00 1662.00,1886.00 1662.00,1886.00
             1662.00,1886.00 1662.00,1707.00 1662.00,1707.00
             1662.00,1707.00 1645.00,1707.00 1645.00,1707.00 Z
           M 244.00,1773.00
           C 244.00,1773.00 244.00,1757.00 244.00,1757.00
             244.00,1757.00 226.00,1757.00 226.00,1757.00
             226.00,1757.00 226.00,1886.00 226.00,1886.00
             226.00,1886.00 244.00,1886.00 244.00,1886.00
             244.00,1886.00 244.00,1819.00 244.00,1819.00
             244.15,1806.60 246.80,1790.99 254.53,1781.00
             258.74,1775.56 264.96,1770.52 272.00,1769.84
             277.48,1769.07 280.46,1771.72 283.48,1769.84
             285.83,1768.61 290.52,1760.63 292.00,1758.00
             278.22,1750.94 264.63,1753.15 253.01,1763.30
             253.01,1763.30 244.00,1773.00 244.00,1773.00 Z
           M 480.00,1859.00
           C 477.57,1857.38 470.51,1852.22 468.00,1852.01
             464.80,1851.74 462.09,1854.98 460.00,1857.00
             455.13,1861.71 451.21,1865.18 445.00,1868.11
             432.04,1874.23 416.63,1875.31 403.00,1870.97
             365.88,1859.17 352.65,1812.84 381.01,1785.04
             385.48,1780.66 391.25,1776.55 397.00,1774.04
             413.37,1766.92 434.76,1768.08 450.00,1777.47
             458.25,1782.55 463.23,1789.25 465.09,1790.30
             468.95,1792.47 479.48,1786.58 478.60,1781.96
             478.00,1778.81 472.35,1773.29 470.00,1771.04
             459.52,1761.02 440.49,1754.17 426.00,1754.00
             411.94,1753.84 403.39,1754.02 390.00,1759.45
             365.30,1769.47 348.31,1794.33 348.00,1821.00
             347.69,1848.41 361.38,1870.11 386.00,1882.24
             394.37,1886.37 403.63,1888.89 413.00,1889.00
             413.00,1889.00 425.00,1889.00 425.00,1889.00
             444.12,1888.91 472.14,1877.42 480.00,1859.00 Z
           M 756.00,1849.00
           C 753.29,1847.24 746.27,1842.46 743.09,1842.99
             739.66,1843.55 735.69,1851.20 733.48,1854.00
             728.47,1860.36 721.43,1865.88 714.00,1869.13
             679.11,1884.36 645.33,1858.92 645.00,1822.00
             645.00,1822.00 761.00,1822.00 761.00,1822.00
             760.80,1799.85 752.14,1779.31 734.00,1765.92
             724.14,1758.65 711.29,1754.15 699.00,1754.00
             699.00,1754.00 689.00,1754.00 689.00,1754.00
             664.72,1754.12 644.07,1769.46 633.78,1791.00
             628.44,1802.19 626.86,1812.75 627.00,1825.00
             627.29,1849.63 643.37,1874.44 666.00,1884.13
             672.58,1886.95 680.83,1888.91 688.00,1889.00
             688.00,1889.00 699.00,1889.00 699.00,1889.00
             717.95,1888.91 736.63,1879.21 747.84,1864.00
             751.42,1859.15 754.33,1854.84 756.00,1849.00 Z
           M 1118.00,1866.00
           C 1118.00,1866.00 1118.00,1886.00 1118.00,1886.00
             1118.00,1886.00 1135.00,1886.00 1135.00,1886.00
             1135.00,1886.00 1135.00,1757.00 1135.00,1757.00
             1135.00,1757.00 1118.00,1757.00 1118.00,1757.00
             1118.00,1757.00 1118.00,1779.00 1118.00,1779.00
             1105.89,1763.00 1090.21,1754.03 1070.00,1754.00
             1070.00,1754.00 1062.00,1754.00 1062.00,1754.00
             1036.41,1754.30 1012.52,1774.52 1004.09,1798.00
             993.50,1827.50 1004.49,1860.42 1030.00,1878.28
             1039.27,1884.77 1050.61,1888.86 1062.00,1889.00
             1087.82,1889.30 1099.45,1884.54 1118.00,1866.00 Z
           M 1430.00,1849.00
           C 1427.29,1847.24 1420.27,1842.46 1417.09,1842.99
             1413.66,1843.55 1409.69,1851.20 1407.48,1854.00
             1402.47,1860.36 1395.43,1865.88 1388.00,1869.13
             1353.11,1884.36 1319.33,1858.92 1319.00,1822.00
             1319.00,1822.00 1435.00,1822.00 1435.00,1822.00
             1434.80,1799.85 1426.14,1779.31 1408.00,1765.92
             1398.14,1758.65 1385.29,1754.15 1373.00,1754.00
             1373.00,1754.00 1363.00,1754.00 1363.00,1754.00
             1338.72,1754.12 1318.07,1769.46 1307.78,1791.00
             1302.44,1802.19 1300.86,1812.75 1301.00,1825.00
             1301.29,1849.63 1317.37,1874.44 1340.00,1884.13
             1346.58,1886.95 1354.83,1888.91 1362.00,1889.00
             1362.00,1889.00 1373.00,1889.00 1373.00,1889.00
             1391.95,1888.91 1410.63,1879.21 1421.84,1864.00
             1425.42,1859.15 1428.33,1854.84 1430.00,1849.00 Z
           M 1821.00,1849.00
           C 1818.29,1847.24 1811.27,1842.46 1808.09,1842.99
             1804.66,1843.55 1800.69,1851.20 1798.48,1854.00
             1793.47,1860.36 1786.43,1865.88 1779.00,1869.13
             1744.11,1884.36 1710.33,1858.92 1710.00,1822.00
             1710.00,1822.00 1826.00,1822.00 1826.00,1822.00
             1825.80,1799.85 1817.14,1779.31 1799.00,1765.92
             1789.14,1758.65 1776.29,1754.15 1764.00,1754.00
             1764.00,1754.00 1754.00,1754.00 1754.00,1754.00
             1729.72,1754.12 1709.07,1769.46 1698.78,1791.00
             1693.44,1802.19 1691.86,1812.75 1692.00,1825.00
             1692.29,1849.63 1708.37,1874.44 1731.00,1884.13
             1737.58,1886.95 1745.83,1888.91 1753.00,1889.00
             1753.00,1889.00 1764.00,1889.00 1764.00,1889.00
             1782.95,1888.91 1801.63,1879.21 1812.84,1864.00
             1816.42,1859.15 1819.33,1854.84 1821.00,1849.00 Z
           M 303.00,1757.00
           C 303.00,1757.00 303.00,1886.00 303.00,1886.00
             303.00,1886.00 320.00,1886.00 320.00,1886.00
             320.00,1886.00 320.00,1757.00 320.00,1757.00
             320.00,1757.00 303.00,1757.00 303.00,1757.00 Z
           M 1160.00,1757.00
           C 1160.00,1757.00 1177.69,1796.00 1177.69,1796.00
             1177.69,1796.00 1204.78,1855.00 1204.78,1855.00
             1204.78,1855.00 1215.42,1878.00 1215.42,1878.00
             1216.36,1880.15 1218.28,1885.41 1221.11,1885.39
             1224.17,1885.37 1226.00,1880.30 1227.00,1878.00
             1227.00,1878.00 1237.58,1855.00 1237.58,1855.00
             1237.58,1855.00 1266.31,1792.00 1266.31,1792.00
             1266.31,1792.00 1282.00,1757.00 1282.00,1757.00
             1282.00,1757.00 1271.00,1757.00 1271.00,1757.00
             1271.00,1757.00 1263.70,1757.99 1263.70,1757.99
             1263.70,1757.99 1260.22,1764.00 1260.22,1764.00
             1260.22,1764.00 1253.26,1779.00 1253.26,1779.00
             1253.26,1779.00 1221.00,1849.00 1221.00,1849.00
             1221.00,1849.00 1204.31,1813.00 1204.31,1813.00
             1204.31,1813.00 1188.24,1778.00 1188.24,1778.00
             1188.24,1778.00 1178.30,1757.99 1178.30,1757.99
             1178.30,1757.99 1171.00,1757.00 1171.00,1757.00
             1171.00,1757.00 1160.00,1757.00 1160.00,1757.00 Z
           M 742.00,1808.00
           C 742.00,1808.00 647.00,1808.00 647.00,1808.00
             652.55,1772.05 694.54,1759.16 723.00,1778.10
             734.00,1785.42 738.46,1795.87 742.00,1808.00 Z
           M 900.00,1769.29
           C 905.38,1768.90 914.87,1770.32 920.00,1772.08
             939.03,1778.61 950.39,1794.50 953.13,1814.00
             953.60,1817.33 954.10,1819.56 953.91,1823.00
             953.43,1831.46 951.62,1840.54 947.49,1848.00
             941.13,1859.47 931.25,1866.87 919.00,1871.00
             914.46,1872.53 905.72,1874.15 901.00,1873.82
             855.05,1870.54 837.62,1817.21 865.18,1786.00
             875.25,1774.60 885.60,1771.38 900.00,1769.29 Z
           M 1066.00,1769.30
           C 1080.59,1768.56 1095.90,1774.15 1105.83,1785.01
             1113.67,1793.60 1118.86,1805.30 1119.00,1817.00
             1119.21,1835.26 1117.02,1849.11 1102.00,1861.68
             1093.01,1869.20 1081.60,1872.99 1070.00,1873.82
             1063.87,1874.25 1053.58,1871.84 1048.00,1869.22
             1027.34,1859.52 1017.74,1841.20 1018.00,1819.00
             1018.22,1800.76 1029.69,1782.53 1046.00,1774.37
             1052.59,1771.08 1058.88,1770.30 1066.00,1769.30 Z
           M 1416.00,1808.00
           C 1416.00,1808.00 1321.00,1808.00 1321.00,1808.00
             1326.55,1772.05 1368.54,1759.16 1397.00,1778.10
             1408.00,1785.42 1412.46,1795.87 1416.00,1808.00 Z
           M 1592.00,1769.29
           C 1597.38,1768.90 1606.87,1770.32 1612.00,1772.08
             1631.03,1778.61 1642.39,1794.50 1645.13,1814.00
             1645.60,1817.33 1646.10,1819.56 1645.91,1823.00
             1645.43,1831.46 1643.62,1840.54 1639.49,1848.00
             1633.13,1859.47 1623.25,1866.87 1611.00,1871.00
             1606.46,1872.53 1597.72,1874.15 1593.00,1873.82
             1547.05,1870.54 1529.62,1817.21 1557.18,1786.00
             1567.25,1774.60 1577.60,1771.38 1592.00,1769.29 Z
           M 1807.00,1808.00
           C 1807.00,1808.00 1712.00,1808.00 1712.00,1808.00
             1717.55,1772.05 1759.54,1759.16 1788.00,1778.10
             1799.00,1785.42 1803.46,1795.87 1807.00,1808.00 Z
           M 1479.00,1860.57
           C 1460.28,1867.92 1470.25,1894.25 1489.00,1888.35
             1498.76,1885.28 1501.93,1871.87 1494.66,1864.21
             1490.29,1859.61 1484.81,1859.52 1479.00,1860.57 Z
           M 1158.00,199.00
           C 1158.00,199.00 1120.00,199.00 1120.00,199.00
             1106.01,199.02 1112.80,205.13 1095.00,214.68
             1082.57,221.35 1059.14,225.83 1045.00,226.16
             1045.00,226.16 1029.00,226.16 1029.00,226.16
             1029.00,226.16 1010.00,226.16 1010.00,226.16
             1010.00,226.16 992.00,225.00 992.00,225.00
             992.00,225.00 981.00,224.09 981.00,224.09
             981.00,224.09 952.00,222.09 952.00,222.09
             952.00,222.09 840.00,213.91 840.00,213.91
             840.00,213.91 786.00,209.91 786.00,209.91
             786.00,209.91 776.00,209.00 776.00,209.00
             776.00,209.00 743.00,209.00 743.00,209.00
             743.00,209.00 731.00,209.91 731.00,209.91
             696.26,212.30 662.13,218.76 629.00,229.67
             581.58,245.28 539.79,269.28 500.00,299.13
             423.49,356.52 360.56,437.17 320.69,524.00
             320.69,524.00 313.31,539.00 313.31,539.00
             297.71,572.97 283.61,609.50 275.35,646.00
             272.54,658.42 268.15,681.67 268.00,694.00
             267.68,722.08 267.42,741.73 276.51,769.00
             289.88,809.10 318.65,836.02 357.00,852.42
             363.24,855.09 376.63,860.25 383.00,861.48
             388.59,862.56 392.03,860.55 397.00,858.42
             405.61,854.74 413.97,850.42 422.00,845.60
             445.93,831.25 473.90,806.95 489.65,784.00
             497.25,772.94 504.39,760.84 503.98,747.00
             503.71,737.59 497.23,733.15 490.00,728.36
             490.00,728.36 442.00,702.00 442.00,702.00
             415.57,684.57 392.83,662.68 382.52,632.00
             378.17,619.06 377.36,610.36 376.75,597.00
             376.75,597.00 376.75,587.00 376.75,587.00
             377.14,575.12 378.67,565.49 381.63,554.00
             403.03,470.86 495.77,432.86 573.00,421.73
             573.00,421.73 610.00,417.91 610.00,417.91
             610.00,417.91 622.00,416.89 622.00,416.89
             622.00,416.89 647.00,416.89 647.00,416.89
             647.00,416.89 656.00,416.89 656.00,416.89
             656.00,416.89 681.00,416.89 681.00,416.89
             681.00,416.89 697.00,418.00 697.00,418.00
             697.00,418.00 720.00,418.00 720.00,418.00
             720.00,418.00 737.00,419.00 737.00,419.00
             737.00,419.00 760.00,419.00 760.00,419.00
             760.00,419.00 775.00,420.00 775.00,420.00
             775.00,420.00 838.00,421.00 838.00,421.00
             838.00,421.00 853.00,422.00 853.00,422.00
             853.00,422.00 876.00,422.00 876.00,422.00
             876.00,422.00 893.00,423.00 893.00,423.00
             893.00,423.00 925.00,423.00 925.00,423.00
             925.00,423.00 948.00,423.00 948.00,423.00
             948.00,423.00 958.00,421.90 958.00,421.90
             958.00,421.90 966.00,421.90 966.00,421.90
             966.00,421.90 991.00,415.65 991.00,415.65
             991.00,415.65 1043.00,404.64 1043.00,404.64
             1052.38,401.55 1068.15,392.43 1076.00,386.34
             1107.92,361.56 1128.81,314.07 1140.28,276.00
             1140.28,276.00 1153.80,223.00 1153.80,223.00
             1155.25,215.86 1157.67,206.08 1158.00,199.00 Z
           M 936.00,1500.00
           C 936.00,1500.00 936.00,1498.00 936.00,1498.00
             943.33,1495.68 962.76,1482.82 970.00,1478.00
             991.04,1463.98 1011.54,1449.60 1031.00,1433.41
             1068.86,1401.91 1103.11,1365.40 1128.55,1323.00
             1172.11,1250.40 1192.74,1151.43 1203.72,1068.00
             1203.72,1068.00 1211.28,1006.00 1211.28,1006.00
             1216.21,968.52 1221.79,931.07 1229.20,894.00
             1234.49,867.53 1241.74,834.77 1252.01,810.00
             1258.92,793.35 1270.94,773.02 1281.00,758.00
             1291.45,742.40 1303.66,727.01 1316.16,713.00
             1316.16,713.00 1328.00,700.00 1328.00,700.00
             1329.82,698.15 1334.00,694.34 1334.75,692.00
             1335.95,688.29 1330.14,682.00 1328.00,679.00
             1328.00,679.00 1309.85,654.00 1309.85,654.00
             1306.02,648.75 1304.20,644.62 1297.00,645.17
             1289.98,645.72 1282.87,647.31 1276.00,648.79
             1238.25,656.93 1205.09,670.75 1172.00,690.60
             1140.51,709.50 1108.66,733.72 1083.01,760.00
             1067.79,775.60 1053.41,793.05 1041.02,811.00
             964.55,921.77 952.16,1061.45 934.13,1191.00
             929.19,1226.51 923.43,1261.84 916.40,1297.00
             908.12,1338.40 899.04,1375.28 875.33,1411.00
             865.79,1425.37 856.19,1436.81 844.00,1449.00
             840.84,1452.16 831.50,1461.48 828.00,1463.32
             824.12,1465.37 818.92,1462.57 815.00,1461.42
             815.00,1461.42 783.00,1452.88 783.00,1452.88
             765.60,1448.88 734.55,1444.03 717.00,1444.00
             717.00,1444.00 706.00,1444.00 706.00,1444.00
             706.00,1444.00 696.00,1443.18 696.00,1443.18
             696.00,1443.18 686.00,1444.00 686.00,1444.00
             686.00,1444.00 673.00,1444.00 673.00,1444.00
             661.24,1444.14 643.79,1446.61 632.00,1448.59
             580.61,1457.21 522.42,1482.57 491.43,1526.00
             481.45,1539.98 473.84,1557.78 472.04,1575.00
             472.04,1575.00 472.04,1583.00 472.04,1583.00
             470.97,1597.01 472.90,1611.26 479.27,1624.00
             487.90,1641.27 503.20,1655.46 520.00,1664.69
             536.32,1673.65 553.61,1677.24 572.00,1678.04
             572.00,1678.04 579.00,1678.66 579.00,1678.66
             579.00,1678.66 593.00,1678.00 593.00,1678.00
             602.54,1677.88 620.37,1674.55 630.00,1672.42
             661.01,1665.58 690.70,1652.91 719.00,1638.75
             719.00,1638.75 754.00,1619.40 754.00,1619.40
             757.27,1617.45 766.85,1610.90 770.00,1610.80
             772.57,1610.72 776.65,1613.07 779.00,1614.25
             779.00,1614.25 795.00,1621.75 795.00,1621.75
             795.00,1621.75 849.00,1643.33 849.00,1643.33
             900.10,1660.37 942.39,1669.81 996.00,1675.17
             996.00,1675.17 1021.00,1677.09 1021.00,1677.09
             1021.00,1677.09 1031.00,1678.00 1031.00,1678.00
             1031.00,1678.00 1054.00,1678.00 1054.00,1678.00
             1054.00,1678.00 1064.00,1678.82 1064.00,1678.82
             1064.00,1678.82 1075.00,1678.00 1075.00,1678.00
             1075.00,1678.00 1093.00,1678.00 1093.00,1678.00
             1093.00,1678.00 1105.00,1677.09 1105.00,1677.09
             1105.00,1677.09 1140.00,1674.16 1140.00,1674.16
             1185.78,1669.27 1234.49,1658.76 1278.00,1643.66
             1379.55,1608.41 1474.25,1551.33 1552.00,1476.96
             1635.49,1397.11 1702.83,1292.84 1741.69,1184.00
             1758.92,1135.73 1771.07,1085.91 1777.15,1035.00
             1777.15,1035.00 1781.00,999.00 1781.00,999.00
             1781.00,999.00 1781.00,990.00 1781.00,990.00
             1781.00,990.00 1782.00,980.00 1782.00,980.00
             1782.00,980.00 1782.00,960.00 1782.00,960.00
             1782.00,960.00 1782.97,948.00 1782.97,948.00
             1782.97,948.00 1782.00,934.00 1782.00,934.00
             1782.00,934.00 1778.83,873.00 1778.83,873.00
             1770.21,784.02 1739.65,696.84 1687.57,624.00
             1672.17,602.45 1654.70,582.70 1636.00,564.00
             1557.11,485.11 1460.48,439.69 1352.00,418.00
             1321.22,411.85 1290.26,408.05 1259.00,405.91
             1259.00,405.91 1249.00,405.00 1249.00,405.00
             1249.00,405.00 1230.00,404.00 1230.00,404.00
             1230.00,404.00 1207.00,404.00 1207.00,404.00
             1207.00,404.00 1194.00,403.08 1194.00,403.08
             1194.00,403.08 1182.00,404.00 1182.00,404.00
             1182.00,404.00 1157.00,404.00 1157.00,404.00
             1157.00,404.00 1137.00,405.00 1137.00,405.00
             1137.00,405.00 1126.00,405.91 1126.00,405.91
             1126.00,405.91 1083.00,409.84 1083.00,409.84
             1001.23,418.58 919.09,442.54 846.00,480.26
             781.88,513.34 721.42,562.65 673.17,616.00
             628.84,665.02 592.82,721.08 574.58,785.00
             569.16,803.98 563.23,833.43 562.96,853.00
             562.96,853.00 562.96,865.00 562.96,865.00
             562.96,865.00 562.18,872.00 562.18,872.00
             562.18,872.00 563.00,882.00 563.00,882.00
             563.40,916.87 574.53,951.22 592.40,981.00
             602.51,997.85 614.88,1013.59 631.00,1025.09
             643.87,1034.28 660.02,1040.18 676.00,1039.40
             688.85,1038.78 717.20,1027.12 730.00,1022.00
             745.19,1015.93 771.32,1005.16 785.00,997.42
             799.48,989.24 825.19,975.34 827.15,957.00
             830.70,923.82 790.68,915.73 770.00,900.37
             744.52,881.44 730.05,856.03 724.92,825.00
             724.92,825.00 723.00,808.00 723.00,808.00
             722.81,791.70 722.70,777.16 725.61,761.00
             737.24,696.58 776.99,642.64 824.00,598.91
             884.72,542.43 958.19,497.62 1040.00,480.21
             1055.80,476.85 1087.30,472.02 1103.00,472.00
             1103.00,472.00 1142.00,472.00 1142.00,472.00
             1155.94,472.02 1178.92,475.22 1193.00,477.59
             1293.18,494.40 1371.66,551.03 1430.00,633.00
             1449.96,661.04 1467.91,693.06 1480.80,725.00
             1502.84,779.62 1515.90,832.44 1522.16,891.00
             1522.16,891.00 1525.09,923.00 1525.09,923.00
             1525.09,923.00 1526.00,933.00 1526.00,933.00
             1526.00,933.00 1527.00,953.00 1527.00,953.00
             1527.00,953.00 1527.00,1021.00 1527.00,1021.00
             1527.00,1021.00 1526.00,1038.00 1526.00,1038.00
             1526.00,1038.00 1525.09,1053.00 1525.09,1053.00
             1525.09,1053.00 1522.17,1089.00 1522.17,1089.00
             1515.05,1160.16 1500.29,1230.12 1477.67,1298.00
             1455.50,1364.49 1422.27,1441.39 1378.20,1496.00
             1349.14,1532.01 1311.66,1563.33 1267.00,1577.66
             1238.53,1586.79 1219.32,1587.34 1190.00,1587.00
             1190.00,1587.00 1180.00,1586.08 1180.00,1586.08
             1151.31,1583.79 1124.98,1576.32 1098.00,1566.69
             1058.69,1552.66 1020.59,1534.91 982.00,1518.99
             982.00,1518.99 936.00,1500.00 936.00,1500.00 Z
           M 567.00,953.00
           C 553.12,960.43 531.92,975.92 519.00,985.63
             514.49,989.02 498.22,1001.50 495.51,1005.09
             493.38,1007.90 492.45,1012.56 491.33,1016.00
             491.33,1016.00 483.67,1040.00 483.67,1040.00
             483.67,1040.00 465.98,1096.00 465.98,1096.00
             465.98,1096.00 457.00,1125.00 457.00,1125.00
             463.59,1123.12 475.23,1115.75 482.00,1112.26
             482.00,1112.26 535.00,1086.31 535.00,1086.31
             557.33,1076.08 583.52,1066.32 607.00,1059.02
             607.00,1059.02 640.00,1050.00 640.00,1050.00
             640.00,1050.00 635.25,1085.00 635.25,1085.00
             635.25,1085.00 625.00,1141.00 625.00,1141.00
             611.45,1206.47 589.17,1282.68 550.98,1338.00
             543.60,1348.69 535.34,1358.33 526.72,1368.00
             523.07,1372.08 520.88,1373.56 517.00,1377.07
             485.84,1405.35 450.98,1418.67 409.00,1416.93
             409.00,1416.93 400.00,1416.93 400.00,1416.93
             380.96,1414.99 360.03,1407.17 345.00,1395.33
             313.28,1370.34 297.28,1330.96 291.87,1292.00
             290.94,1285.30 290.01,1277.73 290.00,1271.00
             290.00,1271.00 290.00,1248.00 290.00,1248.00
             290.00,1248.00 289.00,1233.00 289.00,1233.00
             289.00,1233.00 287.07,1198.00 287.07,1198.00
             286.48,1191.60 285.06,1181.24 281.35,1176.00
             276.21,1168.74 268.56,1166.10 260.00,1166.23
             256.41,1165.96 251.45,1165.84 248.00,1166.23
             234.34,1168.92 215.30,1180.78 204.00,1188.86
             179.40,1206.46 146.98,1235.01 127.59,1258.00
             119.37,1267.75 107.76,1283.28 105.23,1296.00
             104.81,1299.62 104.98,1305.18 105.23,1309.00
             105.17,1345.69 136.08,1384.02 162.00,1407.16
             181.08,1424.20 195.36,1435.45 218.00,1447.69
             251.14,1465.62 289.86,1475.92 327.00,1481.27
             327.00,1481.27 366.00,1485.09 366.00,1485.09
             366.00,1485.09 378.00,1486.00 378.00,1486.00
             378.00,1486.00 428.00,1486.00 428.00,1486.00
             428.00,1486.00 440.00,1485.09 440.00,1485.09
             440.00,1485.09 463.00,1483.16 463.00,1483.16
             487.73,1480.52 524.75,1473.78 548.00,1465.66
             548.00,1465.66 570.00,1455.80 570.00,1455.80
             570.00,1455.80 592.00,1447.67 592.00,1447.67
             592.00,1447.67 605.00,1443.66 605.00,1443.66
             619.72,1437.38 644.42,1422.54 658.00,1413.49
             774.53,1335.80 845.70,1209.57 875.42,1075.00
             881.37,1048.07 889.76,998.93 891.00,972.00
             891.00,972.00 945.00,958.14 945.00,958.14
             948.93,957.03 963.03,953.75 965.30,951.44
             967.37,949.34 968.58,943.89 969.42,941.00
             969.42,941.00 975.33,923.00 975.33,923.00
             982.80,900.61 989.48,884.39 999.31,863.00
             1011.14,837.23 1027.71,811.51 1044.88,789.00
             1044.88,789.00 1072.00,756.00 1072.00,756.00
             1065.58,757.51 1055.45,762.38 1049.00,765.15
             1049.00,765.15 1014.00,779.60 1014.00,779.60
             977.46,794.22 940.34,807.55 903.00,820.00
             903.00,820.00 904.00,776.00 904.00,776.00
             904.00,776.00 905.00,753.00 905.00,753.00
             905.00,753.00 906.00,738.00 906.00,738.00
             906.00,738.00 907.91,707.00 907.91,707.00
             910.17,674.00 913.01,641.32 920.65,609.00
             925.05,590.41 932.34,569.76 939.45,552.00
             939.45,552.00 952.00,522.00 952.00,522.00
             945.24,523.93 929.59,533.05 923.00,537.00
             905.57,547.46 889.25,558.42 873.00,570.63
             820.13,610.35 763.98,667.66 743.34,732.00
             734.74,758.83 732.96,776.15 733.00,804.00
             733.05,837.39 747.18,870.47 774.00,890.87
             794.66,906.58 824.80,912.28 834.94,939.00
             836.62,943.45 837.32,948.27 837.68,953.00
             838.61,965.37 828.94,978.67 820.00,986.25
             801.39,1001.99 777.31,1012.90 755.00,1022.42
             755.00,1022.42 703.00,1043.00 703.00,1043.00
             694.55,1045.82 684.96,1049.32 676.00,1049.79
             673.18,1049.94 671.65,1049.42 669.00,1049.17
             655.88,1047.90 651.15,1047.23 639.00,1041.24
             602.67,1023.34 583.53,988.05 567.00,953.00 Z" />
</svg>
