<?xml version="1.0" standalone="no"?>
<!DOCTYPE svg PUBLIC "-//W3C//DTD SVG 20010904//EN"
 "http://www.w3.org/TR/2001/REC-SVG-20010904/DTD/svg10.dtd">
<svg version="1.0" xmlns="http://www.w3.org/2000/svg"
 width="300.000000pt" height="300.000000pt" viewBox="0 0 300.000000 300.000000"
 preserveAspectRatio="xMidYMid meet">
<metadata>
Created by potrace 1.10, written by Peter Selinger 2001-2011
</metadata>
<g transform="translate(0.000000,300.000000) scale(0.100000,-0.100000)"
fill="#000000" stroke="none">
<path d="M2015 2500 c-9 -14 4 -50 18 -50 8 0 8 3 -1 12 -7 7 -12 18 -12 25 0
11 5 11 20 3 12 -6 18 -16 14 -23 -4 -7 -2 -7 7 1 12 11 11 15 -5 28 -23 17
-33 18 -41 4z"/>
<path d="M2486 2245 c-22 -13 -57 -27 -78 -30 -21 -4 -38 -10 -38 -13 0 -4
-21 -7 -47 -7 -41 -1 -94 -8 -113 -15 -7 -3 -3 -4 -140 21 -69 12 -132 22
-140 21 -45 -3 -96 -16 -102 -26 -6 -8 -8 -8 -8 2 0 6 -5 12 -11 12 -5 0 -8
-4 -5 -8 3 -5 -21 -7 -52 -6 -39 3 -49 1 -32 -4 l25 -8 -23 -8 c-13 -4 -80 -6
-149 -5 -110 3 -127 1 -138 -14 -8 -12 -15 -14 -20 -8 -10 17 -25 13 -19 -4 4
-8 1 -15 -5 -15 -6 0 -11 4 -11 8 0 11 -73 10 -81 -1 -3 -4 -13 -5 -23 -1 -13
5 -15 9 -5 15 7 4 -18 7 -57 7 -64 -1 -71 -3 -101 -33 -17 -18 -34 -30 -37
-27 -3 3 -6 0 -6 -7 0 -8 -7 -11 -15 -7 -8 3 -15 1 -15 -5 0 -6 -4 -8 -9 -4
-14 8 -76 -24 -91 -49 -7 -11 -13 -41 -13 -66 1 -25 -1 -35 -4 -22 -7 36 -24
25 -20 -13 2 -19 -2 -43 -9 -52 -26 -36 -140 -149 -167 -166 -37 -24 -45 -31
-161 -142 -54 -52 -103 -95 -107 -95 -13 0 -54 -59 -54 -78 0 -9 3 -25 8 -35
15 -31 18 -67 7 -65 -20 5 -37 -70 -36 -153 1 -55 -3 -87 -12 -95 -7 -7 -19
-30 -26 -51 -13 -36 -12 -41 9 -67 35 -44 79 -40 135 12 24 23 59 48 77 54 18
7 33 15 33 18 0 7 69 14 120 13 19 -1 53 -11 75 -23 22 -11 57 -23 78 -27 20
-3 40 -10 43 -14 3 -5 12 -9 20 -9 9 0 12 5 8 12 -4 7 -3 8 4 4 6 -4 8 -14 5
-23 -4 -10 -2 -14 4 -10 9 6 68 -46 133 -119 33 -36 61 -47 87 -31 5 3 47 -35
92 -84 46 -49 86 -88 88 -85 5 5 18 -4 54 -37 10 -9 19 -15 19 -12 0 5 49 -24
60 -35 15 -16 61 -31 86 -29 16 1 42 -4 57 -11 24 -12 31 -11 55 7 34 25 54
82 54 150 1 34 4 50 11 46 6 -4 8 2 5 15 -4 12 -2 22 3 22 5 0 9 8 9 18 0 10
5 23 11 29 7 7 12 31 12 55 0 24 2 37 4 31 7 -20 23 -15 23 6 0 10 7 24 15 31
8 7 15 24 15 38 0 24 1 25 13 8 15 -20 15 -20 19 44 1 17 4 26 8 20 7 -11 28
29 34 61 5 35 40 87 76 114 22 17 39 35 40 41 0 6 21 28 47 50 65 55 142 136
149 157 3 9 10 17 15 17 5 0 9 6 9 13 0 8 9 22 20 32 12 10 19 24 16 31 -3 9
1 11 11 7 13 -5 15 -2 11 15 -4 15 -2 19 8 15 8 -3 14 1 14 9 0 9 11 27 25 42
14 15 23 30 21 34 -11 19 50 65 102 76 17 4 32 12 32 17 0 5 6 9 14 9 22 0 87
65 89 89 1 11 4 21 7 21 3 0 4 34 3 75 0 41 3 73 7 70 4 -3 4 11 0 30 -7 33 2
50 13 23 4 -8 6 -7 6 4 1 9 -5 18 -11 21 -10 3 -10 7 0 19 18 23 4 104 -25
139 -31 37 -81 39 -137 4z m99 -15 c18 -7 25 -15 21 -25 -3 -8 0 -28 6 -45 7
-21 7 -39 1 -53 -6 -12 -7 -32 -2 -44 9 -25 -6 -91 -26 -112 -11 -12 -10 -17
7 -31 l21 -16 -21 -46 c-22 -51 -42 -67 -122 -98 -69 -27 -99 -55 -151 -143
-90 -152 -204 -284 -292 -342 -19 -12 -27 -24 -24 -36 4 -13 -2 -19 -21 -21
-20 -2 -34 -18 -64 -73 -21 -38 -52 -107 -70 -152 -33 -88 -49 -99 -42 -30 2
23 -10 -9 -27 -73 -17 -63 -36 -121 -42 -129 -12 -14 -48 -169 -50 -213 0 -24
-5 -28 -29 -28 -15 0 -28 6 -28 13 -1 20 -78 99 -85 87 -5 -8 -12 -6 -24 4
-10 9 -20 13 -24 10 -3 -4 -13 1 -22 9 -8 9 -22 14 -30 11 -9 -4 -15 0 -15 10
0 9 -4 16 -9 16 -4 0 -29 20 -54 45 -26 25 -52 45 -57 45 -6 0 -8 5 -5 10 3 6
2 10 -4 10 -5 0 -12 8 -16 19 -3 10 -13 28 -23 39 -9 11 -30 37 -47 58 -16 21
-37 46 -47 55 -9 10 -14 20 -11 23 3 2 -6 17 -20 32 -28 30 -55 27 -64 -6 -6
-21 -23 -28 -23 -9 0 6 -6 9 -12 6 -7 -2 -25 5 -39 17 -14 12 -36 28 -48 36
-11 8 -24 29 -27 47 -3 18 -10 30 -15 27 -11 -6 -11 21 1 110 5 46 14 72 24
78 9 5 16 14 16 20 0 18 42 48 69 49 24 0 24 1 6 9 -14 7 -5 9 36 8 30 -1 59
1 65 4 8 5 59 14 137 24 15 2 25 -1 22 -6 -3 -5 11 -12 31 -16 24 -4 38 -13
41 -25 6 -22 19 -25 27 -6 3 6 4 -1 3 -18 -1 -20 2 -29 10 -28 7 2 12 0 11 -5
-1 -4 4 -28 12 -54 9 -32 17 -43 23 -35 5 7 6 -3 2 -23 -4 -23 -3 -30 3 -21
15 21 25 -5 10 -28 -11 -18 -10 -23 6 -38 18 -17 18 -17 6 5 -6 13 -9 26 -6
29 10 11 26 -48 20 -74 -6 -22 -4 -25 9 -20 13 5 16 1 14 -16 -1 -14 3 -21 12
-19 11 2 13 -6 8 -38 -5 -39 5 -63 17 -38 4 7 4 -2 1 -19 -3 -26 -1 -33 11
-33 10 0 14 -6 11 -14 -3 -7 -9 -34 -12 -60 -6 -40 -4 -52 19 -87 15 -22 24
-44 21 -48 -3 -5 0 -11 6 -13 6 -2 2 -15 -11 -30 l-21 -27 33 -30 c18 -16 34
-28 36 -26 2 1 0 44 -4 95 -6 82 -9 93 -29 102 -23 10 -24 38 -3 65 9 11 -3
48 -150 441 -75 202 -55 191 -305 161 -245 -30 -232 -20 -257 -205 -15 -118
-16 -139 -4 -151 8 -8 14 -22 14 -31 0 -11 19 -26 50 -41 30 -14 75 -50 109
-86 l58 -62 -13 56 c-26 107 -14 133 23 53 28 -58 189 -260 240 -299 21 -16
72 -48 113 -72 91 -51 115 -69 107 -77 -3 -4 -28 7 -54 23 -26 17 -69 42 -94
56 -25 14 -65 42 -89 62 -45 38 -178 196 -213 253 -11 18 -21 31 -23 29 -5 -5
22 -91 40 -126 27 -51 5 -36 -64 44 -67 78 -107 110 -173 141 -32 15 -40 16
-47 5 -7 -12 -11 -11 -25 3 -10 10 -27 23 -39 31 -28 18 -132 30 -140 17 -3
-6 -16 -8 -28 -4 -30 7 -188 -76 -188 -100 0 -22 -31 -39 -50 -28 -8 5 -17 7
-21 4 -4 -2 -6 11 -5 29 1 20 7 33 17 35 24 4 53 182 33 198 -19 15 -18 29 5
45 22 16 41 129 22 129 -6 0 -11 7 -11 15 0 8 -4 15 -10 15 -25 0 -7 20 24 25
24 5 47 23 86 67 29 33 96 94 148 136 53 41 131 112 175 156 l80 81 7 69 c5
59 10 72 35 93 24 21 36 24 82 21 49 -3 53 -1 53 20 0 59 84 80 169 42 46 -21
60 -19 163 24 26 11 69 16 142 16 64 0 146 8 208 20 129 25 171 25 227 -1 25
-11 51 -17 59 -14 8 3 21 0 29 -6 20 -17 143 -5 283 28 68 16 120 33 120 40 0
10 14 20 32 22 4 1 19 -4 33 -9z"/>
<path d="M1875 2165 c-88 -24 -216 -38 -288 -32 -63 5 -79 3 -145 -23 -40 -17
-80 -30 -88 -30 -10 0 -5 -9 13 -25 21 -18 24 -24 12 -25 -9 0 -22 7 -29 16
-43 51 -159 84 -194 55 -17 -15 -22 -71 -6 -71 6 0 10 10 10 23 0 13 5 28 12
35 14 14 68 16 68 2 0 -5 -13 -10 -30 -10 -27 0 -30 -3 -30 -29 0 -21 6 -32
20 -36 11 -3 20 -11 20 -16 0 -12 4 -12 -58 11 -102 39 -189 20 -194 -42 -2
-40 3 -83 12 -92 12 -13 0 -36 -19 -36 -9 0 -50 -34 -91 -76 -41 -41 -125
-115 -185 -164 -129 -104 -178 -162 -172 -202 2 -19 -2 -29 -13 -33 -22 -7
-42 -112 -27 -137 8 -13 7 -21 -4 -35 -15 -17 -46 -189 -37 -199 3 -2 44 16
92 42 68 36 86 50 81 63 -3 12 2 21 17 28 28 12 72 -1 65 -20 -6 -15 118 -42
146 -31 18 6 18 8 42 187 15 108 15 120 1 136 -9 10 -16 27 -16 38 0 28 43 36
67 13 17 -16 29 -15 193 6 96 13 185 23 198 23 16 1 22 7 22 24 0 34 44 53 74
33 21 -13 29 -10 115 46 81 51 92 63 89 83 -6 28 29 51 62 42 31 -8 326 188
322 213 -2 11 5 21 18 25 11 3 20 12 20 19 0 8 9 41 20 75 10 34 17 68 13 77
-6 17 -70 48 -118 57 -17 3 -52 0 -80 -8z m60 -24 c-3 -2 3 -9 12 -16 15 -11
14 -14 -5 -33 -22 -22 -21 -47 4 -56 8 -3 14 -12 14 -20 0 -9 7 -12 20 -9 11
3 20 0 20 -6 0 -13 -20 -49 -37 -68 -6 -7 -14 -18 -16 -25 -4 -10 -8 -9 -17 2
-9 12 -10 10 -4 -10 3 -14 3 -22 -1 -18 -11 11 -66 -24 -61 -39 3 -7 -1 -10
-9 -6 -8 3 -44 -16 -81 -42 -47 -34 -76 -48 -101 -48 -40 -1 -93 -40 -93 -69
0 -9 -9 -22 -21 -28 -12 -7 -18 -18 -15 -26 5 -12 1 -14 -15 -9 -15 5 -19 4
-15 -4 4 -7 -1 -11 -13 -11 -10 0 -21 -5 -23 -11 -3 -10 -31 -13 -91 -9 -10 1
-36 -13 -59 -29 -23 -17 -53 -31 -67 -32 -23 0 -24 -1 -6 -8 11 -5 24 -6 29
-3 5 3 6 1 3 -5 -4 -6 -35 -13 -69 -16 -35 -4 -97 -11 -138 -17 -63 -8 -80 -8
-109 6 -57 27 -85 27 -115 -1 -26 -24 -27 -27 -20 -102 4 -43 10 -83 15 -88 4
-6 4 -17 -1 -25 -5 -8 -6 -18 -3 -23 10 -16 -8 -97 -22 -97 -7 0 -15 -7 -19
-15 -9 -24 -67 -14 -101 17 -17 16 -42 28 -57 28 -28 0 -78 -40 -90 -72 -4
-10 -14 -15 -26 -11 -11 2 -23 0 -26 -6 -16 -25 -27 -8 -25 36 2 30 9 52 21
62 18 16 25 66 10 75 -14 8 -1 69 22 101 11 17 22 40 23 53 2 27 58 92 119
140 22 17 51 41 63 51 12 11 32 27 44 36 12 9 16 13 8 9 -9 -5 -12 -3 -7 5 4
6 11 9 15 6 5 -2 42 29 82 70 41 41 81 75 89 75 9 0 21 5 27 11 9 9 19 6 41
-10 25 -17 35 -19 56 -11 40 15 42 37 8 70 -29 27 -37 50 -34 93 2 21 22 23
22 2 0 -13 10 -15 55 -12 66 5 101 38 90 85 -5 24 -3 27 17 26 30 -2 90 -29
82 -36 -3 -4 2 -5 13 -3 10 2 23 4 28 4 20 2 67 50 60 61 -6 9 -2 9 13 1 16
-8 24 -8 34 2 20 20 54 37 61 31 8 -9 151 -7 178 1 14 5 19 4 15 -4 -5 -7 6
-11 34 -11 27 0 39 4 35 11 -4 6 -13 8 -21 5 -8 -3 -14 -1 -14 4 0 6 15 10 34
10 19 0 42 3 52 7 13 5 15 3 10 -8 -4 -8 -1 -6 6 3 8 11 24 17 40 16 15 -1 25
-4 23 -7z m85 -66 c0 -8 -6 -12 -13 -9 -8 3 -20 -2 -27 -11 -16 -20 -26 -19
-34 2 -4 10 -4 14 0 11 4 -4 16 -1 28 7 26 19 46 19 46 0z m-871 -78 c63 -22
44 -34 -20 -14 -56 19 -64 19 -88 6 -22 -13 -26 -22 -24 -54 3 -50 26 -83 69
-101 36 -15 39 -36 5 -27 -32 8 -77 60 -89 102 -13 42 -4 85 20 94 23 10 92 6
127 -6z"/>
<path d="M2440 2169 c-45 -18 -211 -49 -264 -49 -29 0 -59 -6 -68 -12 -20 -17
-52 -143 -43 -165 5 -10 7 -23 7 -28 -1 -6 25 -35 59 -64 47 -41 66 -52 85
-48 13 2 27 1 30 -4 9 -15 33 2 27 19 -4 13 -3 14 5 3 8 -11 14 -10 36 4 14
10 26 23 26 30 0 17 25 26 38 13 12 -12 170 65 194 95 22 28 23 105 2 135 -10
14 -25 22 -45 22 -18 0 -28 4 -24 10 9 15 51 12 65 -5 18 -22 30 -18 30 10 0
22 -3 25 -29 20 -18 -3 -33 0 -41 10 -14 17 -53 19 -90 4z m97 -99 c14 0 21
-19 18 -50 -1 -18 -13 -32 -41 -47 -21 -13 -34 -23 -29 -23 26 0 -55 -32 -88
-34 -23 -2 -54 -15 -83 -36 -52 -37 -90 -41 -139 -14 -33 17 -70 70 -66 93 1
7 -2 10 -7 7 -6 -3 -3 18 6 46 20 65 15 59 44 62 13 1 29 5 35 9 6 4 18 4 27
1 9 -3 16 -1 16 6 0 7 8 9 19 5 11 -3 22 -2 25 3 3 5 26 7 51 4 35 -4 45 -1
45 10 0 11 9 14 35 11 24 -2 37 1 41 10 4 10 16 3 43 -24 21 -22 43 -39 48
-39z"/>
<path d="M2460 1874 c-47 -25 -92 -47 -100 -49 -8 -2 -33 -14 -56 -27 -36 -21
-40 -26 -33 -50 7 -25 5 -28 -19 -29 -15 -1 -35 -1 -44 0 -25 3 -108 -77 -108
-104 0 -13 -9 -26 -22 -32 -18 -8 -29 -31 -50 -109 -15 -55 -25 -109 -22 -121
4 -14 0 -28 -10 -38 -18 -19 -22 -49 -5 -43 20 7 153 131 196 183 22 28 69 95
103 150 80 130 90 139 170 170 72 27 102 53 120 99 8 23 8 31 -2 38 -20 12
-27 10 -118 -38z m-206 -255 c-20 -40 -44 -81 -53 -91 -58 -70 -112 -129 -135
-147 -16 -13 -17 -12 -11 15 5 21 4 25 -4 14 -9 -12 -11 -12 -16 2 -4 10 1 27
10 40 l17 23 -7 -22 c-4 -14 -2 -23 4 -23 6 0 11 11 11 25 0 14 -4 25 -9 25
-5 0 -7 10 -3 22 5 21 6 21 13 2 6 -16 8 -15 8 8 1 18 10 33 25 43 13 9 27 27
30 40 10 38 57 80 89 79 15 -1 35 5 45 12 9 7 18 11 20 9 2 -1 -14 -36 -34
-76z"/>
<path d="M1902 1812 c-81 -54 -109 -78 -100 -85 9 -6 8 -7 -4 -3 -23 7 -88
-31 -88 -52 0 -29 -16 -44 -46 -46 -36 -1 -107 -42 -99 -56 3 -6 16 -10 28
-10 18 0 19 2 7 10 -11 7 -4 10 27 10 56 0 86 15 108 53 22 38 73 87 92 87 7
0 13 5 13 10 0 6 7 10 15 10 8 0 15 5 15 11 0 5 4 8 8 5 5 -3 20 6 35 20 14
13 31 24 38 24 6 0 8 7 5 16 -5 14 -4 15 8 5 11 -9 17 -8 30 4 11 11 23 13 43
8 15 -4 31 -7 35 -8 15 -1 58 -46 58 -62 0 -19 -46 -63 -65 -63 -7 0 -27 -13
-44 -29 -25 -23 -31 -37 -29 -63 1 -19 -2 -39 -6 -46 -4 -7 -1 -12 8 -12 17 0
21 -15 7 -24 -5 -4 -12 0 -14 6 -4 9 -6 8 -6 -2 -1 -9 4 -21 10 -27 8 -8 8
-16 0 -30 -6 -10 -11 -12 -11 -5 0 6 -5 12 -11 12 -6 0 -10 -10 -9 -22 3 -38
1 -50 -10 -43 -5 3 -12 -7 -16 -22 -4 -15 -10 -33 -15 -38 -4 -6 -7 -24 -7
-41 1 -16 -4 -39 -10 -51 -6 -11 -9 -23 -6 -26 9 -8 -19 -67 -28 -61 -4 3 -8
-4 -8 -15 0 -14 -6 -21 -20 -21 -11 0 -20 -5 -20 -11 0 -5 -5 -7 -10 -4 -6 4
-9 1 -8 -6 2 -7 -4 -13 -12 -14 -11 0 -15 -10 -13 -34 1 -24 -1 -30 -8 -20 -7
11 -9 11 -9 -3 0 -12 -8 -18 -24 -18 -22 0 -38 -12 -42 -32 -1 -5 -2 -9 -4
-10 -3 -5 -10 -52 -11 -71 0 -14 -3 -16 -13 -8 -8 6 -22 9 -32 5 -16 -5 -16
-4 -4 5 10 7 11 11 3 11 -7 0 -10 6 -7 14 3 8 -4 24 -15 35 -15 15 -19 29 -16
58 4 30 3 33 -4 13 -7 -22 -9 -23 -16 -7 -4 9 -4 24 -1 33 3 8 2 13 -3 9 -5
-3 -12 8 -16 25 -4 16 -11 32 -16 35 -5 4 -9 17 -9 30 0 13 -5 27 -11 31 -7 4
-9 21 -5 45 6 37 -6 55 -17 27 -3 -7 -6 -4 -6 7 -1 12 -6 26 -13 33 -6 6 -11
40 -12 75 l-1 64 53 51 c30 27 49 53 44 56 -17 10 -103 -45 -113 -72 -5 -14
-17 -30 -25 -36 -13 -10 -13 -17 -3 -41 6 -17 56 -149 110 -295 83 -225 101
-266 120 -270 38 -9 47 -36 21 -63 -19 -20 -22 -34 -21 -93 1 -38 5 -82 8 -99
l8 -30 11 41 c22 78 44 249 40 324 -2 45 1 75 7 75 6 0 9 -42 8 -110 l-2 -110
24 95 c31 121 74 240 87 240 6 0 7 -8 3 -17 -4 -10 -9 -36 -12 -58 -4 -35 3
-26 48 65 29 58 54 116 55 129 2 14 10 29 19 33 18 11 20 37 2 44 -20 7 -19
45 2 51 13 3 27 34 51 112 27 92 30 112 20 131 -11 20 -10 25 6 37 10 7 25 11
32 8 7 -3 36 14 63 37 67 56 66 79 -6 142 -30 26 -63 46 -73 44 -9 -1 -21 0
-27 3 -5 4 -61 -28 -123 -69z"/>
<path d="M2800 223 c-31 -11 -60 -47 -60 -74 0 -33 36 -77 65 -80 82 -7 125
19 125 74 0 37 -6 47 -40 70 -24 17 -61 21 -90 10z m90 -43 c11 -11 20 -27 20
-35 0 -27 -38 -55 -75 -55 -37 0 -75 28 -75 55 0 27 38 55 75 55 22 0 43 -8
55 -20z"/>
</g>
</svg>
