<?xml version="1.0" standalone="no"?>
<!DOCTYPE svg PUBLIC "-//W3C//DTD SVG 20010904//EN"
 "http://www.w3.org/TR/2001/REC-SVG-20010904/DTD/svg10.dtd">
<svg version="1.0" xmlns="http://www.w3.org/2000/svg"
 width="900.000000pt" height="744.000000pt" viewBox="0 0 900.000000 744.000000"
 preserveAspectRatio="xMidYMid meet">
<metadata>
Created by potrace 1.10, written by Peter Selinger 2001-2011
</metadata>
<g transform="translate(0.000000,744.000000) scale(0.100000,-0.100000)"
fill="#000000" stroke="none">
<path d="M6805 6494 c-197 -26 -368 -83 -500 -166 -108 -69 -273 -231 -340
-336 -22 -34 -45 -62 -52 -62 -7 0 -29 9 -50 20 -59 30 -275 121 -308 130 -16
5 -55 18 -85 30 -78 31 -141 47 -305 80 -33 7 -87 18 -121 26 -33 7 -154 19
-269 25 -233 14 -589 0 -701 -26 -32 -8 -72 -14 -88 -15 -47 0 -235 -44 -346
-81 -91 -30 -144 -49 -165 -58 -11 -5 -56 -23 -100 -41 -44 -18 -106 -45 -137
-61 l-57 -29 -18 26 c-234 332 -434 468 -774 523 -170 28 -404 -3 -579 -75
-36 -15 -72 -32 -80 -38 -8 -6 -31 -20 -50 -30 -174 -95 -365 -316 -438 -506
-40 -105 -72 -278 -72 -390 0 -79 24 -251 39 -279 6 -11 11 -29 11 -40 0 -23
15 -60 77 -185 96 -194 258 -361 458 -471 76 -42 76 -41 69 -99 -4 -28 -11
-62 -16 -76 -30 -82 -67 -388 -68 -565 -1 -203 27 -461 67 -620 37 -152 46
-182 59 -213 8 -18 14 -39 14 -47 0 -14 20 -66 46 -118 8 -16 14 -33 14 -39 0
-13 131 -278 170 -343 17 -27 33 -57 37 -65 6 -13 64 -99 117 -175 100 -142
293 -352 434 -473 89 -77 342 -262 357 -262 2 0 24 -13 48 -30 25 -16 47 -30
50 -30 3 0 40 -20 81 -45 42 -25 82 -45 89 -45 7 0 17 -4 22 -9 22 -20 288
-124 400 -155 33 -10 80 -24 105 -32 25 -8 58 -14 73 -14 16 0 37 -4 47 -10
23 -12 187 -38 340 -52 139 -14 341 -16 470 -5 269 23 632 112 845 207 360
161 637 351 905 619 86 86 182 192 215 235 97 128 134 180 145 201 6 11 19 34
30 50 11 17 24 39 30 50 6 11 20 36 31 55 52 86 149 292 149 315 0 8 4 16 9
20 5 3 13 20 17 38 3 17 12 45 19 62 26 63 61 174 75 240 5 22 13 58 18 80 44
181 72 417 72 605 0 164 -38 439 -78 571 -18 61 -21 96 -9 111 7 8 44 33 82
56 105 63 104 63 183 126 77 61 179 174 236 260 44 66 126 239 126 264 0 11 8
37 17 58 27 59 26 401 -1 494 -53 186 -112 311 -202 428 -161 212 -353 332
-619 387 -75 15 -221 26 -270 19z m232 -223 c187 -46 311 -117 435 -249 99
-106 161 -220 214 -397 26 -84 26 -381 1 -439 -9 -21 -17 -45 -17 -53 0 -24
-68 -153 -112 -213 -55 -75 -179 -194 -247 -238 -31 -20 -103 -60 -161 -88
-63 -32 -113 -63 -124 -80 -24 -33 -25 -119 -4 -172 9 -20 23 -62 31 -92 9
-30 23 -79 31 -109 9 -29 16 -65 16 -80 0 -14 7 -62 15 -106 17 -95 20 -456 4
-524 -5 -25 -14 -79 -19 -120 -13 -102 -26 -161 -76 -336 -23 -82 -51 -160
-107 -295 -46 -110 -118 -249 -168 -323 -21 -33 -39 -61 -39 -64 0 -7 -89
-122 -166 -213 -66 -78 -247 -259 -319 -320 -107 -90 -268 -202 -400 -278 -49
-29 -97 -57 -105 -62 -8 -6 -25 -15 -38 -20 -31 -13 -130 -58 -167 -75 -38
-18 -170 -64 -213 -75 -19 -5 -46 -13 -60 -18 -27 -10 -107 -28 -252 -56 -41
-8 -155 -22 -252 -31 -163 -15 -192 -15 -365 0 -175 14 -225 22 -408 62 -96
21 -248 65 -317 92 -12 5 -48 19 -78 31 -171 68 -429 215 -575 327 -121 94
-163 129 -234 197 -109 106 -168 168 -228 241 -52 63 -194 259 -206 285 -4 8
-16 29 -27 45 -29 45 -144 280 -179 365 -51 126 -105 314 -122 425 -5 33 -13
80 -18 104 -13 64 -8 70 59 68 78 -3 100 16 100 87 0 28 4 56 8 63 9 14 180
22 200 10 7 -5 12 -31 12 -69 0 -80 27 -253 47 -303 86 -215 216 -342 418
-408 152 -50 673 -50 830 0 127 40 209 87 269 153 20 22 40 40 45 40 5 0 24
-33 44 -72 62 -127 143 -193 295 -243 83 -27 363 -25 453 3 105 33 213 105
244 163 8 15 26 41 41 58 l26 31 36 -29 c45 -35 139 -83 207 -104 76 -24 235
-37 448 -36 258 0 356 17 491 85 105 53 235 184 271 274 4 8 12 29 19 45 33
77 46 135 57 253 16 185 4 172 153 172 143 0 146 -2 146 -85 0 -62 32 -95 91
-95 35 0 47 6 75 36 40 42 44 81 17 176 -24 82 -80 139 -153 156 -28 7 -117
12 -196 12 l-144 0 -17 38 c-93 214 -169 287 -388 375 -78 31 -154 38 -466 39
-341 2 -375 -2 -512 -56 -131 -53 -230 -136 -298 -248 l-41 -68 -47 35 c-93
71 -195 105 -318 105 -133 0 -203 -24 -316 -108 -32 -24 -63 -42 -70 -39 -7 3
-21 22 -32 43 -82 160 -229 265 -450 325 -38 11 -135 14 -390 14 -381 0 -392
-2 -535 -73 -169 -85 -247 -167 -307 -324 l-18 -48 -108 0 c-65 0 -133 -6
-171 -16 -55 -14 -69 -22 -106 -65 -52 -60 -60 -54 -60 45 0 162 55 489 106
629 22 58 18 117 -11 159 -21 31 -114 94 -177 120 -45 19 -151 101 -219 170
-112 114 -214 295 -243 433 -14 66 -13 297 1 360 77 347 373 616 732 665 115
16 282 0 380 -37 36 -13 75 -27 86 -31 27 -8 112 -58 160 -95 86 -66 175 -173
247 -297 47 -81 69 -95 151 -95 67 0 80 4 187 57 322 157 578 224 990 258 280
23 610 -1 875 -63 67 -16 213 -62 262 -83 17 -8 34 -14 39 -14 4 0 32 -12 63
-26 31 -14 76 -35 101 -46 25 -11 68 -31 95 -45 76 -39 146 -53 197 -40 63 15
103 51 166 146 106 163 218 260 405 353 9 4 39 16 65 25 162 55 306 66 439 34z
m-3382 -2282 c144 -51 233 -143 276 -289 21 -69 18 -308 -4 -392 -10 -37 -23
-80 -30 -95 -55 -126 -179 -224 -327 -259 -38 -9 -135 -13 -310 -14 -297 0
-355 8 -450 62 -8 4 -24 12 -35 17 -35 15 -120 114 -147 171 -47 99 -51 121
-55 292 -5 173 1 212 43 303 38 79 135 161 244 204 52 21 236 29 502 24 203
-4 246 -7 293 -24z m2440 1 c80 -24 114 -42 168 -91 57 -49 107 -126 125 -187
18 -68 26 -256 13 -322 -6 -30 -15 -76 -21 -103 -31 -154 -166 -291 -325 -330
-64 -16 -538 -21 -620 -6 -104 18 -189 63 -265 139 -113 113 -135 182 -135
420 l0 175 34 69 c52 109 137 186 256 234 86 34 658 36 770 2z m-1528 -219
c58 -11 141 -77 180 -143 49 -80 91 -256 65 -271 -4 -3 -65 0 -135 5 -159 13
-407 -1 -455 -26 -17 -9 -40 -16 -52 -16 -19 0 -20 4 -14 68 15 166 85 274
234 361 46 27 111 35 177 22z"/>
<path d="M2115 5881 c-71 -21 -91 -32 -165 -87 -66 -50 -88 -74 -126 -139 -57
-95 -68 -140 -68 -262 0 -112 4 -130 52 -233 58 -125 198 -246 332 -286 86
-26 115 -20 171 37 27 28 49 54 49 59 0 42 232 309 320 369 61 41 75 67 74
146 -1 61 -6 80 -35 135 -60 113 -164 203 -291 252 -77 29 -233 34 -313 9z
m242 -207 c21 -9 49 -22 63 -28 35 -15 130 -109 130 -128 0 -8 -45 -60 -101
-114 -89 -88 -249 -283 -249 -305 0 -16 -41 -20 -63 -6 -46 31 -134 127 -156
172 -70 141 -9 313 142 396 44 24 64 29 124 29 45 0 86 -6 110 -16z"/>
<path d="M6665 5881 c-91 -33 -135 -61 -204 -129 -47 -46 -78 -87 -99 -132
-66 -143 -51 -210 69 -306 138 -109 264 -255 309 -355 36 -80 61 -98 135 -99
55 0 114 18 166 49 19 12 45 25 58 31 30 13 163 146 182 182 67 127 83 177 83
267 1 76 -13 130 -57 221 -45 90 -160 205 -252 250 -68 34 -73 35 -205 37
-109 2 -144 -1 -185 -16z m227 -182 c75 -16 121 -43 176 -104 51 -56 82 -126
82 -187 0 -39 -22 -122 -42 -159 -31 -59 -148 -169 -179 -169 -9 0 -37 26 -61
58 -67 91 -145 179 -247 279 -108 108 -110 116 -34 183 57 50 110 79 178 95
66 17 66 17 127 4z"/>
<path d="M3810 5254 c-106 -35 -299 -125 -364 -169 -20 -14 -39 -25 -42 -25
-3 0 -35 -23 -72 -51 -157 -118 -328 -311 -347 -390 -11 -43 17 -92 63 -113
39 -18 42 -18 78 0 24 12 53 40 76 74 74 108 231 253 353 326 53 32 192 93
260 114 22 7 57 19 78 26 20 8 46 14 56 14 11 0 31 14 46 32 23 27 26 39 22
76 -3 30 -14 53 -33 73 -24 25 -35 29 -78 28 -28 0 -71 -7 -96 -15z"/>
<path d="M5140 5257 c-13 -7 -35 -28 -48 -47 -26 -39 -24 -78 7 -120 18 -25
25 -27 136 -53 66 -16 87 -24 190 -74 88 -43 91 -44 200 -125 98 -72 191 -165
268 -266 53 -70 83 -87 124 -71 93 35 102 108 26 209 -47 62 -235 247 -308
302 -148 110 -296 191 -432 234 -85 27 -126 30 -163 11z"/>
<path d="M3801 2444 c-26 -22 -31 -33 -31 -70 0 -72 35 -129 145 -239 96 -96
202 -157 360 -209 110 -35 381 -36 495 -1 76 24 202 76 221 92 8 7 19 13 23
13 31 0 191 157 232 228 67 114 13 232 -90 198 -32 -10 -66 -35 -66 -49 0 -16
-58 -93 -107 -140 -50 -48 -153 -117 -177 -117 -6 0 -16 -4 -21 -9 -10 -10
-67 -26 -145 -41 -78 -15 -210 -11 -290 9 -156 39 -282 127 -364 254 -72 111
-123 133 -185 81z"/>
<path d="M3155 3866 c-16 -8 -55 -22 -85 -31 -73 -24 -118 -59 -141 -111 -23
-50 -14 -88 25 -106 30 -13 69 0 130 44 21 15 46 28 56 28 9 0 22 6 28 13 9 8
50 12 130 12 125 0 152 -7 230 -57 80 -52 142 -32 142 46 0 45 -15 72 -51 89
-8 4 -34 18 -58 32 -24 14 -51 25 -60 25 -9 0 -25 7 -35 15 -26 20 -267 20
-311 1z"/>
<path d="M5605 3871 c-3 -5 -19 -12 -35 -16 -37 -8 -118 -50 -145 -76 -12 -10
-26 -34 -33 -53 -11 -30 -11 -40 3 -66 13 -26 21 -30 56 -30 31 0 51 8 79 30
21 17 44 30 51 30 8 0 23 7 33 15 15 11 49 15 134 15 116 0 121 -1 207 -48
111 -61 124 -66 152 -56 15 5 34 21 42 36 14 25 14 31 -6 72 -24 48 -62 77
-143 110 -25 10 -60 24 -78 32 -38 16 -307 20 -317 5z"/>
</g>
</svg>
